HIERARCHY
ROOT Hips
{
	OFFSET 0.00000 0.00000 0.00000
	CHANNELS 6 Xposition Yposition Zposition Zrotation Yrotation Xrotation 
	JOINT LHipJoint
	{
		OFFSET 0 0 0
		CHANNELS 3 Zrotation Yrotation Xrotation
		JOINT LeftHip
		{
			OFFSET 1.76014 -1.80163 0.38499
			CHANNELS 3 Zrotation Yrotation Xrotation
			JOINT LeftKnee
			{
				OFFSET 2.46817 -6.78126 0.00000
				CHANNELS 3 Zrotation Yrotation Xrotation
				JOINT LeftAnkle
				{
					OFFSET 2.79348 -7.67503 0.00000
					CHANNELS 3 Zrotation Yrotation Xrotation
					JOINT LeftToe
					{
						OFFSET 0.09421 -0.25885 1.91403
						CHANNELS 3 Zrotation Yrotation Xrotation
						End Site
						{
							OFFSET 0.00000 -0.00000 0.97975
						}
					}
				}
			}
		}
	}
	JOINT RHipJoint
	{
		OFFSET 0 0 0
		CHANNELS 3 Zrotation Yrotation Xrotation
		JOINT RightHip
		{
			OFFSET -1.77926 -1.80163 0.38499
			CHANNELS 3 Zrotation Yrotation Xrotation
			JOINT RightKnee
			{
				OFFSET -2.51996 -6.92353 0.00000
				CHANNELS 3 Zrotation Yrotation Xrotation
				JOINT RightAnkle
				{
					OFFSET -2.76109 -7.58603 0.00000
					CHANNELS 3 Zrotation Yrotation Xrotation
					JOINT RightToe
					{
						OFFSET -0.08067 -0.22163 1.86812
						CHANNELS 3 Zrotation Yrotation Xrotation
						End Site
						{
							OFFSET -0.00000 -0.00000 0.95558
						}
					}
				}
			}
		}
	}
	JOINT lowerback
	{
		OFFSET 0 0 0
		CHANNELS 3 Zrotation Yrotation Xrotation
		JOINT Chest
		{
			OFFSET 0.05537 1.92033 -0.03713
			CHANNELS 3 Zrotation Yrotation Xrotation
			JOINT Chest2
			{
				OFFSET 0.04452 1.90073 0.10860
				CHANNELS 3 Zrotation Yrotation Xrotation
				JOINT lowerneck
				{
					OFFSET 0 0 0
					CHANNELS 3 Zrotation Yrotation Xrotation
					JOINT Neck
					{
						OFFSET 0.00903 1.74649 0.02074
						CHANNELS 3 Zrotation Yrotation Xrotation
						JOINT Head
						{
							OFFSET -0.08608 1.67844 -0.12081
							CHANNELS 3 Zrotation Yrotation Xrotation
							End Site
							{
								OFFSET -0.03521 1.83380 -0.05059
							}
						}
					}
				}
				JOINT LeftCollar
				{
					OFFSET 0 0 0
					CHANNELS 3 Zrotation Yrotation Xrotation
					JOINT LeftShoulder
					{
						OFFSET 3.28197 0.84325 -0.19106
CHANNELS 3 Zrotation Xrotation Yrotation
						JOINT LeftElbow
						{
OFFSET 0 -5.243180 -0.000000
CHANNELS 3 Zrotation Xrotation Yrotation
							JOINT LeftWrist
							{
OFFSET 0 -2.989990 0.000000
CHANNELS 3 Zrotation Xrotation Yrotation
								JOINT lhand
								{
									OFFSET 0 0 0
CHANNELS 3 Zrotation Xrotation Yrotation
									JOINT LFingers
									{
OFFSET 0 -0.726740 0.000000
CHANNELS 3 Zrotation Xrotation Yrotation
										End Site
										{
OFFSET 0 -0.585920 0.000000
										}
									}
								}
								JOINT LThumb
								{
OFFSET 0 0.000000 0.000000
CHANNELS 3 Zrotation Xrotation Yrotation
									End Site
									{
OFFSET 0 -0.594870 0.594870
									}
								}
							}
						}
					}
				}
				JOINT RightCollar
				{
					OFFSET 0 0 0
					CHANNELS 3 Zrotation Yrotation Xrotation
					JOINT RightShoulder
					{
						OFFSET -3.30963 0.78377 0.14264
CHANNELS 3 Zrotation Xrotation Yrotation
						JOINT RightElbow
						{
OFFSET 0 -5.370450 0.000000
CHANNELS 3 Zrotation Xrotation Yrotation
							JOINT RightWrist
							{
OFFSET 0 -2.927920 0.000000
CHANNELS 3 Zrotation Xrotation Yrotation
								JOINT rhand
								{
									OFFSET 0 0 0
CHANNELS 3 Zrotation Xrotation Yrotation
									JOINT RFingers
									{
OFFSET 0 -0.784500 0.000000
CHANNELS 3 Zrotation Xrotation Yrotation
										End Site
										{
OFFSET 0 -0.632480 0.000000
										}
									}
								}
								JOINT RThumb
								{
OFFSET 0 0.000000 0.000000
CHANNELS 3 Zrotation Xrotation Yrotation
									End Site
									{
OFFSET 0 -0.642140 0.642140
									}
								}
							}
						}
					}
				}
			}
		}
	}
}
MOTION
Frames: 10
Frame Time: 0.008333333333333333
0.698500 15.207000 -1.435200 7.155900 -3.052100 20.519000 0.000000 0.000000 0.000000 -24.190400 -5.134600 -66.447500 13.348400 18.904400 70.204200 0.905400 -12.712800 -17.957800 0.032300 -1.160200 -3.189800 0.000000 0.000000 0.000000 6.323100 -3.238100 -71.947500 -14.863800 -19.355400 74.826000 -0.353400 16.458400 -14.852800 -0.041600 1.315900 -3.618500 8.596300 -1.213700 23.437500 11.421300 2.161000 0.995800 7.516900 0.936300 -12.338600 6.234900 -0.389500 4.364100 -33.899100 -3.303300 -8.286800 -12.327200 -0.470200 -3.894100 -0.000000 -0.000000 0.000000 28.229000 3.842900 -20.267400 78.704400 -59.512400 50.233800 5.291900 -0.959700 -24.051200 0.000000 0.000000 0.000000 -7.125000 0.000000 0.000000 -24.493700 52.412300 4.698300 -0.000000 -0.000000 0.000000 -44.797800 -23.749100 -2.798300 -52.568000 -53.980100 -28.238400 -0.428500 26.166500 -9.546800 0.000000 0.000000 0.000000 7.125000 0.000000 -0.000000 18.753700 20.617000 11.575500
0.707373 15.236844 -1.431476 7.455109 -3.283438 20.477697 0.000000 0.000000 0.000000 -24.681065 -5.060554 -66.113426 13.173730 18.844022 69.664234 0.909875 -12.476018 -17.930306 0.053982 -1.499202 -4.123494 0.000000 0.000000 0.000000 5.969189 -3.220414 -71.809169 -14.762223 -19.329121 74.519411 -0.363819 16.282284 -14.848845 -0.070907 1.712629 -4.712177 8.223578 -1.180068 23.540832 11.329280 2.108926 1.006347 7.642718 0.931299 -12.386362 6.210454 -0.320870 4.314151 -33.779771 -3.155739 -8.175824 -12.270332 -0.415386 -3.815113 0.000000 0.000000 0.000000 28.332075 3.958048 -20.223495 79.254817 -59.559155 50.708180 5.670895 -1.000347 -23.841687 0.000000 0.000000 0.000000 -7.125000 0.000000 0.000000 -24.016136 52.286374 4.520855 0.000000 0.000000 0.000000 -44.713559 -23.731541 -2.416978 -52.850266 -54.082292 -28.466804 -0.819744 26.079480 -10.005390 0.000000 0.000000 0.000000 7.125000 0.000000 0.000000 18.433022 20.177990 11.548524
0.711676 15.261752 -1.423764 7.415039 -3.402934 20.505320 0.000000 0.000000 0.000000 -24.701652 -5.008247 -65.919815 13.062969 18.804734 69.320961 0.890652 -12.504160 -17.781281 0.038942 -1.270313 -3.492982 0.000000 0.000000 0.000000 5.981350 -3.067075 -71.591459 -14.638943 -19.296484 74.146664 -0.352926 16.236719 -14.729887 -0.062439 1.612030 -4.434604 8.197336 -1.101857 23.451197 11.328908 2.177791 1.073125 7.622135 0.963437 -12.263235 6.294711 -0.331211 4.447698 -33.815485 -3.228885 -8.381588 -12.312218 -0.422646 -3.918587 0.000000 0.000000 0.000000 28.439686 3.671341 -20.043193 79.946885 -59.614615 51.305021 5.468442 -1.842075 -24.277774 0.000000 0.000000 0.000000 -7.125000 0.000000 0.000000 -24.459242 52.648127 4.837231 0.000000 0.000000 0.000000 -44.796276 -23.650787 -2.372075 -53.248760 -54.224587 -28.789806 -0.904736 26.085843 -10.844020 0.000000 0.000000 0.000000 7.125000 0.000000 0.000000 18.281626 19.380648 11.790116
0.721405 15.290427 -1.405995 7.293602 -3.475955 20.526531 0.000000 0.000000 0.000000 -24.627250 -4.992695 -65.698254 12.978559 18.774384 69.058871 0.899505 -12.386122 -17.821899 0.046583 -1.390652 -3.824387 0.000000 0.000000 0.000000 6.092929 -2.975026 -71.315593 -14.516065 -19.263127 73.774394 -0.348543 16.202852 -14.673519 -0.065711 1.646695 -4.530364 8.296905 -1.088009 23.302200 11.351381 2.190741 1.127218 7.574280 0.963530 -12.114881 6.303853 -0.329231 4.205474 -33.910100 -3.178397 -8.201915 -12.345458 -0.431904 -3.809645 0.000000 0.000000 0.000000 28.522445 3.538079 -19.943713 79.940154 -59.614096 51.299188 5.442607 -1.693557 -24.320783 0.000000 0.000000 0.000000 -7.125000 0.000000 0.000000 -24.508872 52.682671 4.869579 0.000000 0.000000 0.000000 -44.724872 -23.596649 -2.297816 -53.676725 -54.374854 -29.137337 -0.785755 26.218846 -10.842130 0.000000 0.000000 0.000000 7.125000 0.000000 0.000000 18.362388 19.384344 11.846461
0.732291 15.310794 -1.386094 7.145433 -3.627062 20.452116 0.000000 0.000000 0.000000 -24.578073 -4.815538 -65.475784 12.930510 18.756926 68.909559 0.963973 -11.994945 -18.246387 0.122412 -2.254480 -6.209397 0.000000 0.000000 0.000000 6.204079 -2.847174 -70.981950 -14.416256 -19.235433 73.471817 -0.348832 16.157421 -14.651931 -0.082920 1.845203 -5.078476 8.396954 -1.073169 23.410211 11.377615 2.260849 1.097848 7.533042 0.990291 -12.213428 6.313352 -0.356779 4.308069 -33.992011 -3.224024 -8.168883 -12.380632 -0.446850 -3.833918 0.000000 0.000000 0.000000 28.544294 3.665161 -20.073582 79.863384 -59.608115 51.233053 5.567462 -1.360027 -24.524331 0.000000 0.000000 0.000000 -7.125000 0.000000 0.000000 -24.510916 52.888838 4.997912 0.000000 0.000000 0.000000 -44.792309 -23.464691 -2.005314 -53.642629 -54.363035 -29.109622 -0.874869 26.398149 -10.794415 0.000000 0.000000 0.000000 7.125000 0.000000 0.000000 18.307393 19.428305 11.787774
0.738775 15.321715 -1.378151 7.264457 -3.642107 20.509141 0.000000 0.000000 0.000000 -24.731180 -4.897994 -65.373612 12.876987 18.737295 68.743085 0.910804 -12.293020 -17.889149 0.045044 -1.369854 -3.766984 0.000000 0.000000 0.000000 6.023613 -2.829145 -70.951237 -14.379366 -19.225117 73.359660 -0.342167 16.132033 -14.579543 -0.089975 1.933842 -5.322872 8.241544 -1.053888 23.399717 11.406934 2.261790 1.011725 7.665517 1.002385 -12.316838 6.291214 -0.382937 4.526849 -34.038757 -3.296106 -8.229680 -12.398698 -0.455901 -3.913359 0.000000 0.000000 0.000000 28.328474 3.793673 -20.139419 79.488361 -59.578311 50.909510 6.181964 -0.420396 -23.953660 0.000000 0.000000 0.000000 -7.125000 0.000000 0.000000 -23.597438 52.475625 4.547426 0.000000 0.000000 0.000000 -45.040304 -23.348373 -1.905698 -53.593220 -54.345795 -29.069447 -0.805339 26.399895 -10.891307 0.000000 0.000000 0.000000 7.125000 0.000000 0.000000 18.343829 19.337365 11.853543
0.746884 15.339757 -1.352133 7.141762 -3.759048 20.297205 0.000000 0.000000 0.000000 -24.723544 -4.608586 -65.019984 12.843641 18.725002 68.639008 0.904645 -12.466600 -17.884685 0.031999 -1.152903 -3.169642 0.000000 0.000000 0.000000 6.125846 -2.832474 -70.488324 -14.314616 -19.206705 73.162947 -0.292755 16.430561 -14.307951 -0.036473 1.232134 -3.387818 8.280503 -1.078017 23.444148 11.425991 2.228295 1.139968 7.668479 0.984212 -12.187354 6.241364 -0.337321 4.293541 -33.885687 -3.190866 -8.167223 -12.320315 -0.434531 -3.819520 0.000000 0.000000 0.000000 28.173232 3.823784 -19.842223 79.392783 -59.570604 50.827108 6.428874 -0.285693 -23.870943 0.000000 0.000000 0.000000 -7.125000 0.000000 0.000000 -23.316644 52.442216 4.468603 0.000000 0.000000 0.000000 -45.052917 -23.459968 -1.882406 -53.696599 -54.381820 -29.153490 -0.956779 26.697067 -10.978441 0.000000 0.000000 0.000000 7.125000 0.000000 0.000000 18.231979 19.252138 11.810069
0.749450 15.330564 -1.339723 7.202102 -3.857533 20.242184 0.000000 0.000000 0.000000 -24.786623 -4.602368 -64.960271 12.865149 18.732954 68.706160 0.920212 -12.430292 -18.002025 0.027652 -1.068245 -2.936595 0.000000 0.000000 0.000000 6.024848 -2.849616 -70.517379 -14.359713 -19.219482 73.300007 -0.312597 16.426645 -14.480625 -0.063638 1.618627 -4.452936 8.056949 -1.032945 23.623290 11.465529 2.277641 1.046875 7.847646 1.023517 -12.412129 6.252549 -0.339131 4.628045 -33.965939 -3.243384 -8.274405 -12.364452 -0.419744 -3.931904 0.000000 0.000000 0.000000 27.922500 4.146782 -19.770080 79.951575 -59.615017 51.309047 6.002352 -0.726645 -24.153536 0.000000 0.000000 0.000000 -7.125000 0.000000 0.000000 -23.882258 52.626956 4.699580 0.000000 0.000000 0.000000 -45.146271 -23.187727 -1.652406 -53.874570 -54.443466 -29.298262 -0.896154 26.752603 -10.923532 0.000000 0.000000 0.000000 7.125000 0.000000 0.000000 18.278924 19.305368 11.820784
0.757005 15.325795 -1.329256 7.273707 -3.942434 20.134240 0.000000 0.000000 0.000000 -24.925659 -4.534566 -64.843179 12.875857 18.736899 68.739532 0.955787 -12.157977 -18.220211 0.061730 -1.597333 -4.394207 0.000000 0.000000 0.000000 5.901287 -2.916807 -70.458800 -14.385887 -19.226887 73.379501 -0.280759 16.663309 -14.333557 -0.040768 1.298407 -3.570246 8.023652 -0.991296 23.691373 11.421376 2.319603 1.098179 7.797200 1.042184 -12.391239 6.384053 -0.351322 4.496357 -34.101522 -3.223623 -8.148346 -12.444071 -0.432147 -3.869478 0.000000 0.000000 0.000000 27.921649 3.997915 -19.787023 79.650344 -59.591362 51.049225 6.131972 -0.680343 -24.042305 0.000000 0.000000 0.000000 -7.125000 0.000000 0.000000 -23.695785 52.547759 4.612159 0.000000 0.000000 0.000000 -45.152689 -23.183303 -1.655180 -53.689507 -54.379327 -29.147755 -0.583907 26.856482 -10.855285 0.000000 0.000000 0.000000 7.125000 0.000000 0.000000 18.497403 19.375028 11.947678
0.769429 15.319303 -1.319196 7.119655 -3.849220 20.118059 0.000000 0.000000 0.000000 -24.759618 -4.567401 -64.834755 12.926177 18.755339 68.895972 0.960473 -12.316616 -18.297232 0.042911 -1.336901 -3.676433 0.000000 0.000000 0.000000 6.061572 -3.015702 -70.416114 -14.403696 -19.231884 73.433587 -0.287937 16.699666 -14.417214 -0.051299 1.460656 -4.017274 8.306285 -0.977894 23.635533 11.455974 2.394820 1.176569 7.639250 1.060045 -12.265029 6.682263 -0.419915 4.373422 -34.323135 -3.312813 -8.122416 -12.597929 -0.491523 -3.866433 0.000000 0.000000 0.000000 28.008096 3.675289 -19.742139 79.306687 -59.563503 50.752929 5.928179 -0.902977 -24.284364 0.000000 0.000000 0.000000 -7.125000 0.000000 0.000000 -24.028358 52.733338 4.795744 0.000000 0.000000 0.000000 -45.132671 -23.220595 -1.955349 -53.530286 -54.323786 -29.018335 -0.299907 26.853015 -10.649892 0.000000 0.000000 0.000000 7.125000 0.000000 0.000000 18.712404 19.573794 12.014237
